# xmcd CD database file
#
# Track frame offsets:
#	150
#	11769
#	25410
#	38811
#	52978
#	67614
#	78236
#	88005
#	102944
#	115265
#	128510
#	144613
#	152464
#	165372
#	176080
#	191231
#	207317
#	221722
#	233972
#	248682
#	261621
#	274405
#	283223
#	292746
#	303482
#
# Disc length: 4239 seconds
#
# Revision: 0
# Processed by: cddbd v1.5.2PL0 Copyright (c) Steve Scherf et al.
# Submitted via: CDex 1.51
#
DISCID=68108d19
DTITLE=Blubbery Hellbellies - Shootin´ ´n´ Steamin´ - Flabbergasted
DYEAR=1900
DGENRE=Country
TTITLE0=Hellbellie Boogie
TTITLE1=Less Of You To Love
TTITLE2=The Mutant Strain
TTITLE3=In Amsterdam
TTITLE4=Prehistoric Plateau
TTITLE5=I Wanna Be Sedated
TTITLE6=Punk Rock Brought Us Together (But Country Tore Us Apart)
TTITLE7=T-Bone
TTITLE8=Hopping Mad
TTITLE9=On The Run
TTITLE10=On The Other Side
TTITLE11=My Baby`s As Fat As Me
TTITLE12=Hootin´ ´n´ Howlin´
TTITLE13=Hootin´ ´n´ Howlin´
TTITLE14=On The Other Side
TTITLE15=Food Poisoning
TTITLE16=On The Trail
TTITLE17=Moved Away
TTITLE18=Erazerhead Baby
TTITLE19=Pig Country
TTITLE20=Broken Man
TTITLE21=My Baby She´s As Fat As Me
TTITLE22=Make The World Go Away
TTITLE23=Prehistoric Plateau
TTITLE24=Drink Up Thee Cider
EXTD=
EXTT0=
EXTT1=
EXTT2=
EXTT3=
EXTT4=
EXTT5=
EXTT6=
EXTT7=
EXTT8=
EXTT9=
EXTT10=
EXTT11=
EXTT12=
EXTT13=
EXTT14=
EXTT15=
EXTT16=
EXTT17=
EXTT18=
EXTT19=
EXTT20=
EXTT21=
EXTT22=
EXTT23=
EXTT24=
PLAYORDER=
